<svg width="20" height="20" viewBox="0 0 20 20" fill="none" xmlns="http://www.w3.org/2000/svg">
<path d="M2.67993 16.16L6.61993 18.46L9.99993 16.5L13.3799 18.46L17.3199 16.16V11.64L14.5199 10L17.3199 8.36004V3.84004L13.3799 1.54004L9.99993 3.50004L6.61993 1.54004L2.67993 3.84004V8.36004L5.47993 10L2.67993 11.64V16.16ZM3.79993 15.52V12.82L6.15993 14.16V16.88L3.79993 15.52ZM3.79993 7.72004V5.02004L6.15993 6.36004V9.08004L3.79993 7.72004ZM4.25993 12.02L6.71993 10.6L9.07993 11.96L6.61993 13.38L4.25993 12.02ZM4.25993 4.22004L6.61993 2.86004L8.97993 4.22004L6.61993 5.58004L4.25993 4.22004ZM7.07993 16.88V14.16L9.53993 12.76V15.44L7.07993 16.88ZM7.07993 9.20004V6.36004L9.53993 4.96004V7.78004L7.07993 9.20004ZM7.53993 10L9.99993 8.56004L12.4599 10L9.99993 11.44L7.53993 10ZM10.4599 15.44V12.76L12.9199 14.16V16.88L10.4599 15.44ZM10.4599 7.78004V4.96004L12.9199 6.36004V9.20004L10.4599 7.78004ZM10.9199 11.96L13.2799 10.6L15.7399 12.02L13.3799 13.38L10.9199 11.96ZM11.0199 4.22004L13.3799 2.86004L15.7399 4.22004L13.3799 5.58004L11.0199 4.22004ZM13.8399 16.88V14.16L16.1999 12.82V15.52L13.8399 16.88ZM13.8399 9.08004V6.36004L16.1999 5.02004V7.72004L13.8399 9.08004Z" fill="white"/>
</svg>
