<svg width="40" height="41" viewBox="0 0 40 41" fill="none" xmlns="http://www.w3.org/2000/svg">
<path d="M26.6667 35.4989H30C32.75 35.4989 35 33.2489 35 30.4989V27.1656M26.6667 5.4989H30C32.75 5.4989 35 7.73223 35 10.4989V13.8322M5 27.1656V30.4989C5 33.2489 7.23333 35.4989 10 35.4989H13.3333M5 13.8322V10.4989C5 7.73223 7.23333 5.4989 10 5.4989H13.3333M22.5833 22.9989H22.5667L22.55 22.9822V22.9656M28.2583 22.9989H28.2417L28.225 22.9822V22.9656M22.5833 28.8322H22.5667L22.55 28.8156V28.7989M28.25 28.8322H28.2333L28.2167 28.8156V28.7989M25.425 25.9156H25.4083L25.3917 25.8989V25.8822M23.3317 12.1656H27.4983C27.9586 12.1656 28.3317 12.5387 28.3317 12.9989V17.1656C28.3317 17.6258 27.9586 17.9989 27.4983 17.9989H23.3317C22.8714 17.9989 22.4983 17.6258 22.4983 17.1656V12.9989C22.4983 12.5387 22.8714 12.1656 23.3317 12.1656ZM12.4983 12.1656H16.665C17.1252 12.1656 17.4983 12.5387 17.4983 12.9989V17.1656C17.4983 17.6258 17.1252 17.9989 16.665 17.9989H12.4983C12.0381 17.9989 11.665 17.6258 11.665 17.1656V12.9989C11.665 12.5387 12.0381 12.1656 12.4983 12.1656ZM12.4983 22.9989H16.665C17.1252 22.9989 17.4983 23.372 17.4983 23.8322V27.9989C17.4983 28.4591 17.1252 28.8322 16.665 28.8322H12.4983C12.0381 28.8322 11.665 28.4591 11.665 27.9989V23.8322C11.665 23.372 12.0381 22.9989 12.4983 22.9989Z" stroke="white" stroke-width="2.2" stroke-linecap="round" stroke-linejoin="round"/>
</svg>
