<svg width="20" height="20" viewBox="0 0 20 20" fill="none" xmlns="http://www.w3.org/2000/svg">
<path d="M5.41667 12.0834V7.91674L7.5 12.0834V7.91674M9.58333 12.0834V7.91674H11.25M13.75 12.0834V7.91674M13.75 7.91674H12.9167M13.75 7.91674H14.5833M10 10.0001H10.4167M16.875 13.0876V6.91257C16.875 6.36674 16.5842 5.86257 16.1108 5.58924L10.7633 2.50174C10.2908 2.22924 9.70833 2.22924 9.23583 2.50174L3.88917 5.59007C3.41583 5.86257 3.125 6.36674 3.125 6.91257V13.0867C3.125 13.6326 3.41583 14.1367 3.88917 14.4101L9.23667 17.4976C9.70917 17.7701 10.2917 17.7701 10.7642 17.4976L16.1117 14.4101C16.5842 14.1376 16.875 13.6334 16.875 13.0876Z" stroke="white" stroke-width="1.5" stroke-linecap="round" stroke-linejoin="round"/>
</svg>
