<svg width="20" height="20" viewBox="0 0 20 20" fill="none" xmlns="http://www.w3.org/2000/svg">
<path d="M16.4303 16.96C17.5503 16.96 18.4703 16.04 18.4703 14.92C18.4703 13.8 17.5503 12.88 16.4303 12.88C15.8903 12.88 15.3903 13.08 15.0303 13.44L13.0303 12.24C13.1303 11.96 13.1903 11.64 13.1903 11.32C13.1903 9.78004 11.9503 8.52004 10.4103 8.52004C10.1703 8.52004 9.93027 8.56004 9.71027 8.62004L8.75027 6.60004C9.19027 6.24004 9.45027 5.68004 9.45027 5.08004C9.45027 3.96004 8.53027 3.04004 7.41027 3.04004C6.29027 3.04004 5.37027 3.96004 5.37027 5.08004C5.37027 6.20004 6.29027 7.12004 7.41027 7.12004C7.55027 7.12004 7.67027 7.10004 7.79027 7.08004L8.75027 9.10004C8.07027 9.60004 7.65027 10.4 7.65027 11.32C7.65027 12.86 8.87027 14.08 10.4103 14.08C11.2303 14.08 11.9703 13.74 12.4703 13.18L14.4703 14.36C14.4103 14.54 14.3903 14.72 14.3903 14.92C14.3903 16.04 15.3103 16.96 16.4303 16.96ZM1.53027 11.32C1.53027 12.18 2.25027 12.9 3.11027 12.9C3.99027 12.9 4.71027 12.18 4.71027 11.32C4.71027 10.42 3.99027 9.72004 3.11027 9.72004C2.25027 9.72004 1.53027 10.42 1.53027 11.32ZM5.39027 11.78H6.91027V10.86H5.39027V11.78ZM6.45027 5.08004C6.45027 4.54004 6.89027 4.10004 7.41027 4.10004C7.95027 4.10004 8.39027 4.54004 8.39027 5.08004C8.39027 5.60004 7.95027 6.04004 7.41027 6.04004C6.89027 6.04004 6.45027 5.60004 6.45027 5.08004ZM8.79027 11.32C8.79027 10.4 9.51027 9.68004 10.4103 9.68004C11.3103 9.68004 12.0503 10.4 12.0503 11.32C12.0503 12.22 11.3103 12.94 10.4103 12.94C9.51027 12.94 8.79027 12.22 8.79027 11.32ZM13.0903 8.76004L13.6503 9.50004L15.1703 8.38004L14.6303 7.64004L13.0903 8.76004ZM15.2903 6.56004C15.2903 7.44004 16.0103 8.16004 16.8703 8.16004C17.7703 8.16004 18.4703 7.44004 18.4703 6.56004C18.4703 5.68004 17.7703 4.96004 16.8703 4.96004C16.0103 4.96004 15.2903 5.68004 15.2903 6.56004ZM15.4703 14.92C15.4703 14.38 15.9103 13.94 16.4303 13.94C16.9703 13.94 17.4103 14.38 17.4103 14.92C17.4103 15.44 16.9703 15.88 16.4303 15.88C15.9103 15.88 15.4703 15.44 15.4703 14.92Z" fill="white"/>
</svg>
