<svg width="20" height="20" viewBox="0 0 20 20" fill="none" xmlns="http://www.w3.org/2000/svg">
<path d="M3.90029 16.9001H17.7003V6.0001H5.30029V7.2201H16.4803V15.6801H3.90029C3.64029 15.6801 3.52029 15.5601 3.52029 15.3001V4.7001C3.52029 4.4401 3.64029 4.3201 3.90029 4.3201H16.0803C15.9803 3.6001 15.3603 3.1001 14.6003 3.1001H3.90029C2.98029 3.1001 2.30029 3.7801 2.30029 4.7001V15.3001C2.30029 16.2201 2.98029 16.9001 3.90029 16.9001ZM12.6403 11.5401C12.6403 12.0601 13.0603 12.5201 13.6003 12.5201C14.1403 12.5201 14.5603 12.0601 14.5603 11.5401C14.5603 11.0201 14.1403 10.6001 13.6003 10.6001C13.0603 10.6001 12.6403 11.0201 12.6403 11.5401Z" fill="#603087"/>
</svg>
