<svg width="56" height="56" viewBox="0 0 56 56" fill="none" xmlns="http://www.w3.org/2000/svg">
<g id="Logo / 1inch" clip-path="url(#clip0_2100_1894)">
<path id="Vector" d="M13.3312 30.8591L14.8128 19.0311L1.96167 9.55183L13.7036 13.7779L16.4767 9.25719L26.6023 2.5813L48.9215 15.6468L50.0782 35.5819L40.1348 50.2638L32.2752 51.5434L36.3397 43.6384V36.0281L33.3844 30.0846L30.3816 27.9716L25.7625 33.0311V38.3853L22.1575 41.9716L17.578 42.5609L15.5497 43.7815L12.222 42.6535L10.8355 37.3498L13.3312 33.6204V30.8591Z" fill="white"/>
<path id="Vector_2" d="M33.8468 9.44561C31.3986 8.90683 28.7206 9.04994 28.7206 9.04994C28.7206 9.04994 27.8412 13.3686 22.3901 14.5051C22.4298 14.5051 29.5922 17.1064 33.8468 9.44561Z" fill="#94A6C3"/>
<path id="Vector_3" d="M36.0692 48.6295C39.0245 46.1712 41.2429 42.787 42.265 38.9566C42.3125 38.8135 42.7245 38.5609 43.0018 38.3673C43.4613 38.0726 43.9288 37.8285 44.016 37.4328C44.1982 36.3048 44.2933 35.1262 44.2933 33.9476C44.2933 33.5098 43.8733 33.0636 43.4613 32.6259C43.1365 32.3312 42.8117 31.9861 42.8117 31.7419C42.3521 27.2717 40.411 23.0961 37.3131 20.057L36.9882 20.4022C39.9911 23.3992 41.9322 27.4737 42.3521 31.7924C42.3997 32.1881 42.7641 32.5753 43.1365 32.971C43.4613 33.2657 43.8337 33.7118 43.8337 33.9055C43.8337 35.0336 43.7387 36.1616 43.5564 37.2897C43.5089 37.4833 43.0969 37.6854 42.772 37.879C42.3125 38.1231 41.8926 38.3673 41.8054 38.763C40.6962 42.9385 38.1529 46.5753 34.7777 48.9325C35.3799 47.5603 37.2735 43.0901 38.2876 40.8255L38.1054 33.5603L32.2344 27.5242L28.9068 28.0125L25.2543 34.3011C25.2543 34.3011 26.9656 36.6078 24.557 39.3102C22.2039 41.962 20.3499 42.5513 20.3499 42.5513L18.6385 41.5663C19.1456 40.876 20.1677 39.8489 20.9521 39.1586C22.291 37.98 23.63 37.879 23.63 36.6078C23.6855 33.9476 20.9996 34.68 20.9996 34.68L20.0251 35.6649L19.6131 39.3017L17.5848 42.0041L17.355 41.9536L14.0273 41.1706C14.0273 41.1706 16.0636 40.0426 16.3884 38.763C16.7132 37.5339 15.7387 33.4593 15.6912 33.2152C15.7387 33.2657 16.6657 34.0991 17.0777 35.4713C17.8145 33.3078 18.7891 31.2452 19.0664 31.0516C19.3437 30.858 23.0833 28.7449 23.0833 28.7449L21.8394 32.2302L22.7664 31.6914L24.9849 25.8995C24.9849 25.8995 27.1558 24.7714 28.7721 24.7714C31.6798 24.7209 35.982 20.941 34.0409 14.1641C34.5955 14.4082 44.2061 19.5182 45.8699 29.5363C47.1139 37.2392 43.0018 44.4539 36.0692 48.6295Z" fill="#94A6C3"/>
<path id="Vector_4" d="M25.0727 10.5227C26.1344 9.1926 25.7224 7.23108 25.7224 7.23108L22.6245 12.097C22.5769 12.097 23.7258 12.1475 25.0727 10.5227Z" fill="#1B314F"/>
<path id="Vector_5" d="M14.663 37.0915L15.0354 35.1299C15.0354 35.1299 13.5063 37.9754 13.3716 38.3711C13.229 38.8173 13.4666 39.6002 14.0609 39.5497C14.663 39.4992 15.3999 38.5647 15.3999 37.8828C15.3999 36.9988 14.663 37.0915 14.663 37.0915Z" fill="#1B314F"/>
<path id="Vector_6" d="M42.1147 5.85868C42.1147 5.85868 44.4282 5.9597 46.8289 6.25435C41.4175 1.7336 36.2913 0.411894 32.1317 0.411894C26.4033 0.411894 22.521 2.92061 22.2833 3.06373L24.0898 0.0162239C24.0898 0.0162239 16.8798 -0.724606 14.3365 7.38243C13.6868 5.66505 13.0926 3.15633 13.0926 3.15633C13.0926 3.15633 9.34503 6.65002 11.1039 12.442C6.80173 10.7751 0.661381 8.46 0.42369 8.41791C0.0988458 8.3674 0.00376937 8.51893 0.00376937 8.51893C0.00376937 8.51893 -0.091307 8.66204 0.185999 8.9146C0.700996 9.34394 10.4067 16.9627 12.538 18.4359C12.0785 20.2038 12.0785 21.0373 12.538 21.8707C13.1877 22.9988 13.2273 23.5881 13.1402 24.4215C13.0451 25.2549 12.2132 32.478 12.0309 33.362C11.8487 34.2459 9.90756 37.386 9.99472 38.3205C10.0898 39.255 11.2862 43.2285 12.3558 43.6747C13.1402 43.9693 15.0813 44.6091 16.3728 44.6091C16.8323 44.6091 17.2522 44.5081 17.4344 44.3145C18.2188 43.5821 18.4486 43.4305 19.0032 43.4305C19.0507 43.4305 19.0983 43.4305 19.1379 43.4305C19.3677 43.4305 19.645 43.481 19.9698 43.481C20.7067 43.481 21.6812 43.3295 22.3705 42.6476C23.3846 41.57 25.1436 40.0968 25.6982 39.4065C26.3954 38.472 26.7599 37.2008 26.5776 35.9212C26.435 34.7426 27.0372 33.7071 27.7344 32.6801C28.6138 31.451 30.2301 29.2453 30.2301 29.2453C33.4231 31.7877 35.4118 35.6687 35.4118 39.9874C35.4118 47.6482 29.1288 53.8358 21.3643 53.8358C20.16 53.8358 19.0111 53.6927 17.8544 53.3981C21.4118 54.7198 24.4146 55.166 26.8708 55.166C32.0921 55.166 34.8651 53.1539 34.8651 53.1539C34.8651 53.1539 33.8985 54.4841 32.3218 55.9994C32.3694 55.9994 32.3694 55.9994 32.3694 55.9994C41.0134 54.7198 45.2205 47.1599 45.2205 47.1599C45.2205 47.1599 44.8957 49.6181 44.4837 51.285C55.98 42.1004 54.0389 30.6091 53.9913 30.2219C54.0864 30.365 55.2432 31.8382 55.8374 32.6296C57.6914 12.3915 42.1147 5.85868 42.1147 5.85868ZM24.4146 38.1774C24.2324 38.4215 23.448 39.1623 22.8934 39.7011C22.3388 40.2399 21.7367 40.7787 21.2771 41.2754C21.0949 41.469 20.7225 41.57 20.1679 41.57C19.9857 41.57 19.7955 41.57 19.6608 41.57C19.5657 41.57 19.4786 41.57 19.3835 41.57C19.2884 41.57 19.2409 41.57 19.2013 41.57C19.0587 41.57 18.924 41.57 18.7814 41.57C19.4786 40.5851 21.5069 38.3289 22.2041 37.8406C23.036 37.2513 23.456 36.662 22.941 35.635C22.4339 34.5995 21.0949 34.8521 21.0949 34.8521C21.0949 34.8521 21.8793 34.5069 22.5765 34.5069C21.697 34.2628 20.5878 34.5069 20.0807 35.0457C19.5261 35.5845 19.6212 37.5039 19.3914 38.7246C19.1617 40.0042 18.3773 40.644 17.173 41.8226C16.5233 42.4624 16.0638 42.656 15.6914 42.656C14.907 42.5129 13.98 42.2604 13.3303 42.0162C12.8708 41.3764 12.1735 39.2634 11.9913 38.3794C12.126 37.8911 12.6806 36.8557 12.9579 36.2664C13.5125 35.1383 13.8374 34.4985 13.9325 33.9092C14.1147 33.0758 14.7168 27.9152 14.9466 25.7601C15.5488 26.5935 16.3807 27.9741 16.1905 28.8581C17.5295 26.846 16.5629 24.8761 16.0955 24.0932C15.6835 23.3103 15.1288 21.736 15.5884 20.0691C16.0479 18.4023 17.7118 13.7805 17.7118 13.7805C17.7118 13.7805 18.2664 14.816 19.0507 14.6139C19.8351 14.4203 26.1656 4.30125 26.1656 4.30125C26.1656 4.30125 27.877 8.27479 26.0706 11.1792C24.2245 14.0752 22.418 14.6139 22.418 14.6139C22.418 14.6139 24.9613 15.1022 27.3145 13.2838C28.2811 15.6915 29.2081 18.1918 29.2556 18.537C29.113 18.8821 27.2669 23.5965 27.0847 23.8911C26.9896 23.9922 26.3479 24.1858 25.8804 24.2868C25.096 24.531 24.6365 24.6825 24.4463 24.8256C24.1215 25.1203 22.6399 29.439 21.9506 31.552C21.1187 31.7961 20.2867 32.2928 19.6846 33.2694C20.0094 33.0252 21.0236 32.8737 21.7683 32.7811C22.418 32.7306 24.3988 33.8587 24.9138 35.9717C24.9138 36.0222 24.9138 36.0222 24.9138 36.0728C25.0168 36.8473 24.787 37.5881 24.4146 38.1774ZM20.0728 38.7667C20.4927 38.1269 20.4452 37.0493 20.4927 36.7041C20.5403 36.359 20.6274 35.7192 20.9998 35.6266C21.3722 35.5255 22.2516 35.6771 22.2516 36.359C22.2516 36.9988 21.602 37.1419 21.1424 37.5881C20.8097 37.9248 20.16 38.6657 20.0728 38.7667ZM38.5097 29.38C38.9693 26.8797 39.0168 24.7162 38.8821 22.9483C40.6806 25.4991 41.7899 28.5971 42.1147 31.7877C42.1622 32.1834 42.5267 32.5706 42.8991 32.9663C43.2239 33.261 43.5963 33.6566 43.5963 33.9008C43.5963 35.0289 43.5012 36.1569 43.319 37.2934C43.2715 37.4366 42.8595 37.6891 42.5346 37.8827C42.0751 38.1269 41.6552 38.371 41.568 38.7667C40.5539 42.5466 38.375 45.8887 35.4673 48.2459C39.7616 43.481 41.8374 35.6181 38.5097 29.38ZM35.602 48.6837C38.6048 46.2255 40.9183 42.7907 41.9325 38.9098C41.98 38.7667 42.392 38.5141 42.6693 38.3205C43.1288 38.0764 43.5963 37.7817 43.6835 37.386C43.8657 36.258 43.9608 35.0794 43.9608 33.9008C43.9608 33.463 43.5408 33.0168 43.1288 32.5791C42.8991 32.2844 42.5267 31.9393 42.5267 31.6951C42.1543 28.1088 40.8153 24.7246 38.7395 21.9212C37.8125 16.0283 34.1204 14.2098 34.0253 14.1593C34.1204 14.3109 36.521 17.9898 34.8572 22.3085C33.1458 26.6777 28.7565 25.9958 28.3841 26.0379C28.0117 26.0379 26.5856 27.9994 24.7791 31.6362C24.5493 31.5352 23.5748 31.291 22.4656 31.4931C23.2975 29.0349 24.5493 25.5496 24.7791 25.2549C24.8742 25.1539 25.5635 24.9603 26.0309 24.8172C26.9104 24.573 27.3224 24.4215 27.465 24.2279C27.5601 24.0764 28.0196 22.9483 28.4792 21.7697C28.8991 21.7697 29.9608 21.6687 30.0479 21.6181C30.143 21.5171 31.0225 19.1178 31.0225 18.8232C31.0225 18.5791 29.216 13.8142 28.5267 11.9958C28.8515 11.6001 29.1764 11.1118 29.4933 10.573C38.9693 11.659 46.3694 20.2038 46.3694 30.5586C46.3694 38.5141 41.98 45.4426 35.602 48.6837Z" fill="#1B314F"/>
<path id="Vector_7" d="M23.3135 22.1663C24.1929 21.0887 23.7334 19.0767 22.1092 18.7316C22.5291 17.7045 23.1233 15.642 23.1233 15.642C23.1233 15.642 18.4091 23.4964 17.9971 23.648C17.5772 23.7995 17.1652 22.0737 17.1652 22.0737C16.2857 25.66 18.6468 26.1483 18.9241 25.0202C20.2156 24.6666 22.434 23.1934 23.3135 22.1663Z" fill="#1B314F"/>
<path id="Vector_8" d="M19.2798 24.0772L21.6805 19.708C21.6805 19.708 23.067 20.4488 22.3697 21.6274C21.4982 22.9996 19.2798 24.0772 19.2798 24.0772Z" fill="#FFD923"/>
<path id="Vector_9" d="M49.0047 44.3151C48.3074 45.3001 47.5231 46.3271 46.604 47.3121C52.5621 35.1305 46.8813 23.9844 46.6515 23.5466C47.0715 23.9928 47.4835 24.4811 47.8558 24.9188C52.4274 30.3151 52.982 38.4222 49.0047 44.3151Z" fill="#D82122"/>
<path id="Vector_10" d="M54.5504 28.6482C52.4667 22.7047 49.5114 17.6452 42.9987 13.0823C36.7157 8.66261 29.9653 9.00777 29.5929 9.05828C29.5453 9.05828 29.4978 9.05828 29.4978 9.05828C29.7276 8.95725 29.9573 8.90674 30.1871 8.86465C31.6212 8.37638 33.4672 7.9807 35.3212 7.73657C40.2256 6.98732 45.1696 8.75521 48.5448 12.5436C48.5923 12.5941 48.5923 12.5941 48.6399 12.6446C52.4746 16.9633 54.4633 22.3596 54.5504 28.6482Z" fill="#D82122"/>
<path id="Vector_11" d="M41.5166 4.33551C34.6315 2.96329 30.1946 3.64519 27.0016 4.92481C26.9065 4.52914 26.5816 3.74621 26.3043 3.1064C25.3456 4.33551 24.3236 5.80876 23.6818 6.74321C21.9229 8.02283 21.186 9.25194 21.186 9.25194C22.2002 5.56462 25.1634 2.82017 28.7684 2.12985C29.7826 1.93623 30.8918 1.83521 32.0961 1.83521C35.2812 1.88572 38.4662 2.71915 41.5166 4.33551Z" fill="#D82122"/>
<path id="Vector_12" d="M16.0526 13.7642C10.649 13.5706 12.4476 6.88628 12.5426 6.49902C12.5426 6.54953 12.9071 11.7522 16.0526 13.7642Z" fill="#D82122"/>
<path id="Vector_13" d="M21.3715 1.72815C17.2119 4.37998 18.0438 10.7107 18.0438 10.7107C14.0665 4.28738 21.0467 1.87968 21.3715 1.72815Z" fill="#D82122"/>
<path id="Vector_14" d="M14.5275 15.5325C14.8048 15.7766 15.0821 16.2228 14.7572 16.8626C14.575 17.2078 14.2977 17.1573 13.8778 16.9636C13.3232 16.669 9.99551 14.6065 6.99268 12.4934C10.4154 13.773 13.8778 15.1452 14.4324 15.4399C14.4324 15.4399 14.4799 15.4904 14.5275 15.5325Z" fill="white"/>
</g>
<defs>
<clipPath id="clip0_2100_1894">
<rect width="56" height="56" fill="white"/>
</clipPath>
</defs>
</svg>
