<svg width="56" height="56" viewBox="0 0 56 56" fill="none" xmlns="http://www.w3.org/2000/svg">
<g id="Logo / ADA">
<path id="Vector" d="M27.4284 7.12694C28.4449 6.60273 29.6865 7.81457 29.1474 8.81418C28.8312 9.62915 27.6406 9.84563 27.0336 9.22379C26.3905 8.62954 26.6006 7.44953 27.4284 7.12482V7.12694ZM16.4878 8.28573C17.1054 8.03529 17.8885 8.59134 17.8249 9.25562C17.8885 9.97297 16.9972 10.5035 16.3669 10.1619C15.5328 9.8435 15.6283 8.51069 16.4878 8.28573ZM38.8952 10.181C37.9296 10.0663 37.7767 8.57224 38.7042 8.27087C39.4258 7.92706 40.0879 8.57436 40.1941 9.24713C40.0413 9.82016 39.5531 10.3465 38.8952 10.181ZM18.9773 12.8657C20.0109 12.2226 21.4837 13.1798 21.3246 14.3619C21.2715 15.5525 19.6628 16.2444 18.7545 15.4379C17.8758 14.8055 18.0095 13.3538 18.9773 12.8657ZM34.7461 13.5491C35.2066 12.3818 37.0743 12.3436 37.5985 13.4811C38.1184 14.3662 37.4796 15.4634 36.5564 15.7648C35.3318 15.9897 34.1709 14.6866 34.7461 13.5491ZM26.1104 15.699C26.0998 14.693 27.0294 13.9459 27.9993 13.8759C28.6444 14.0032 29.3448 14.2728 29.6207 14.9116C30.1364 15.7945 29.678 17.0063 28.7505 17.4117C28.3261 17.6451 27.821 17.5581 27.3583 17.5305C26.6516 17.191 26.0552 16.5182 26.1104 15.699ZM9.84074 17.1634C10.7852 16.5903 12.0586 17.6303 11.6999 18.6405C11.5046 19.5128 10.3119 19.8672 9.63063 19.3111C8.90268 18.7891 9.01728 17.5348 9.84286 17.1612L9.84074 17.1634ZM44.7783 17.1591C45.5784 16.5479 46.9006 17.2504 46.8029 18.2436C46.8581 19.1498 45.7142 19.8354 44.9205 19.3684C44.0461 18.9801 43.9548 17.6557 44.7783 17.1612V17.1591ZM30.6861 18.9652C32.0062 18.4983 33.5767 19.0565 34.328 20.2174C35.3212 21.633 34.7949 23.7892 33.252 24.6021C31.656 25.5635 29.3236 24.7506 28.7315 22.9934C28.0629 21.4228 29.0392 19.4576 30.684 18.9652H30.6861ZM22.9333 19.1201C24.3977 18.441 26.3693 19.0098 27.076 20.4827C27.908 21.9173 27.2649 23.9144 25.7772 24.6551C24.2873 25.4892 22.1841 24.8568 21.4646 23.3181C20.656 21.8282 21.3734 19.8056 22.9333 19.1201ZM15.172 21.7285C15.2845 20.801 16.1737 20.1961 17.0715 20.1325C17.5396 20.1819 17.9772 20.3887 18.3126 20.7191C18.648 21.0495 18.8614 21.4839 18.9179 21.9513C18.8542 22.9063 18.105 23.8359 17.0778 23.8317C15.9466 23.9272 14.9555 22.8193 15.172 21.7285ZM38.0972 20.3362C39.2581 19.6719 40.869 20.6376 40.818 21.9492C40.8966 23.3393 39.1138 24.3177 37.9593 23.5027C36.758 22.8236 36.8514 20.9135 38.0972 20.3362ZM19.7817 25.2324C21.1357 24.8652 22.6892 25.4934 23.3535 26.7201C24.0815 27.9553 23.7843 29.6702 22.6531 30.5785C21.1994 31.9071 18.5231 31.3722 17.7506 29.5598C16.8614 27.898 17.9416 25.6696 19.7795 25.2303L19.7817 25.2324ZM34.4829 25.226C35.8009 24.8546 37.3502 25.3534 38.059 26.5355C38.9971 27.8874 38.5493 29.9057 37.1549 30.7759C35.6905 31.7882 33.4281 31.2576 32.6217 29.6744C31.6454 28.0381 32.628 25.7248 34.4829 25.226ZM11.0526 26.7668C12.2241 26.3318 13.523 27.603 13.0476 28.747C12.7589 29.7869 11.2669 30.1731 10.4965 29.4049C9.59455 28.6833 9.92775 27.0809 11.0526 26.7668ZM42.8215 28.4265C42.7995 27.9593 42.9628 27.5023 43.276 27.1549C43.5892 26.8076 44.0269 26.5979 44.4939 26.5716C45.2961 26.6989 46.0771 27.3356 46.0135 28.1952C46.0877 29.3306 44.6976 30.101 43.7129 29.5683C43.2523 29.337 43.0167 28.8722 42.8215 28.4265ZM5.2905 27.3314C5.99511 27.0279 6.86738 27.6285 6.70608 28.3989C6.66788 29.2712 5.35841 29.6086 4.87877 28.8785C4.45431 28.3713 4.70898 27.5924 5.2905 27.3292V27.3314ZM49.7508 27.3123C50.2475 26.9663 51.0455 27.2146 51.2407 27.7855C51.5739 28.4095 50.9627 29.2627 50.2496 29.1587C49.2479 29.2478 48.9253 27.7473 49.7508 27.3123ZM23.6103 31.4996C25.4652 31.0263 27.4602 32.548 27.4729 34.4284C27.5918 36.3279 25.6265 38.0108 23.7292 37.5737C22.2605 37.3402 21.1081 35.948 21.1569 34.4899C21.1527 33.0934 22.2223 31.7946 23.6103 31.4996ZM30.9578 31.4975C32.8403 30.9796 34.8946 32.5289 34.8649 34.4517C34.9647 36.3151 33.061 37.9429 31.2018 37.5715C29.4509 37.3508 28.1605 35.4598 28.6487 33.7874C28.8949 32.6754 29.8414 31.7712 30.9578 31.4953V31.4975ZM16.7892 32.6541C18.0923 32.4355 19.3147 33.8638 18.7863 35.0821C18.4 36.3809 16.4815 36.7311 15.6325 35.6721C14.6393 34.6533 15.3821 32.7942 16.7892 32.6541ZM38.3392 32.7114C39.5022 32.2318 40.9284 33.2208 40.8392 34.4623C40.8859 35.827 39.1244 36.7693 37.989 35.9713C36.7007 35.2561 36.9363 33.1486 38.3392 32.7114ZM44.3623 38.6539C43.9081 37.8198 44.7337 36.7141 45.6781 36.869C46.145 36.8606 46.474 37.2235 46.7732 37.5291C46.8348 38.0236 46.9388 38.6136 46.5207 38.9935C45.954 39.7002 44.67 39.4986 44.3623 38.6539ZM9.83649 37.1004C10.7173 36.5252 11.9843 37.3848 11.7848 38.395C11.6787 39.2927 10.5326 39.8042 9.77919 39.2948C8.96847 38.8343 8.99818 37.5206 9.83649 37.1004ZM27.2246 38.9744C28.377 38.4756 29.8457 39.4625 29.7353 40.7104C29.8202 42.0899 28.0056 43.045 26.8787 42.2173C25.6265 41.5063 25.8366 39.4137 27.2246 38.9744ZM19.1726 40.8229C20.1531 40.3157 21.4689 41.1922 21.3798 42.2746C21.4095 43.1617 20.5308 43.9172 19.6395 43.7857C18.903 43.7708 18.4234 43.1193 18.1857 42.5017C18.1984 41.8289 18.4807 41.0797 19.1726 40.825V40.8229ZM35.4847 40.8399C36.4949 40.2244 37.9296 41.1073 37.8341 42.2618C37.8595 43.4716 36.2381 44.2441 35.2979 43.4503C34.3895 42.8285 34.4999 41.3344 35.4847 40.8399ZM38.3222 47.7374C37.8723 47.071 38.4007 46.2667 39.1287 46.1138C39.7165 46.2306 40.3384 46.6656 40.2132 47.3321C40.1283 48.2383 38.7827 48.5142 38.3222 47.7395V47.7374ZM15.8023 47.158C15.9806 46.6274 16.4135 46.1032 17.0481 46.2412C17.9713 46.3049 18.2451 47.6759 17.4365 48.0982C16.7107 48.58 15.866 47.9199 15.8023 47.158ZM26.6686 47.7671C26.8447 46.9819 27.874 46.602 28.5532 47.018C29.0031 47.209 29.1347 47.7013 29.2493 48.1216C29.1887 48.3398 29.1321 48.5592 29.0795 48.7795C28.8015 49.1021 28.4428 49.4268 27.9802 49.4162C27.1206 49.5159 26.3438 48.5587 26.6664 47.7671H26.6686Z" fill="#0033AD"/>
</g>
</svg>
