<svg width="56" height="56" viewBox="0 0 56 56" fill="none" xmlns="http://www.w3.org/2000/svg">
<g id="Logo / AVAX">
<path id="Vector" d="M39.6177 32.7715C40.7588 30.779 42.6 30.779 43.741 32.7715L50.8464 45.382C51.9875 47.3745 51.0539 49 48.7718 49H34.4572C32.2011 49 31.2675 47.3745 32.3826 45.382L39.6177 32.7715ZM25.8736 8.49438C27.0147 6.50187 28.8299 6.50187 29.9709 8.49438L31.5528 11.3783L35.2871 18.0112C36.1947 19.8989 36.1947 22.1273 35.2871 24.015L22.7618 45.9588C21.6207 47.7416 19.7277 48.8689 17.6272 49H7.22831C4.94627 49 4.01271 47.4007 5.15373 45.382L25.8736 8.49438Z" fill="#E84142"/>
</g>
</svg>
