<svg width="56" height="56" viewBox="0 0 56 56" fill="none" xmlns="http://www.w3.org/2000/svg">
<g id="Logo / BNB">
<path id="Vector" d="M18.9374 24.276L28.0001 15.2133L37.0674 24.2806L42.3407 19.0073L28.0001 4.66663L13.6641 19.0026L18.9374 24.276ZM4.66675 28L9.94008 22.7266L15.2134 28L9.94008 33.2733L4.66675 28ZM18.9374 31.724L28.0001 40.7866L37.0674 31.7193L42.3407 36.9903L28.0001 51.3333L13.6641 36.9973L13.6571 36.9903L18.9374 31.724ZM40.7867 28L46.0601 22.7266L51.3334 28L46.0601 33.2733L40.7867 28ZM33.3481 27.9953H33.3527V28L28.0001 33.3526L22.6544 28.0093L22.6451 28L22.6544 27.993L23.5901 27.055L24.0451 26.6L28.0001 22.6473L33.3504 27.9976L33.3481 27.9953Z" fill="#F5BC00"/>
</g>
</svg>
