<svg width="56" height="56" viewBox="0 0 56 56" fill="none" xmlns="http://www.w3.org/2000/svg">
<g id="Logo / BTC">
<path id="Vector" d="M44.4966 23.428C45.2312 18.5249 41.4953 15.8885 36.3909 14.1293L38.0472 7.48572L34.0049 6.47983L32.3907 12.948C31.3287 12.6813 30.2386 12.4333 29.1508 12.1854L30.7766 5.67511L26.7343 4.66687L25.0781 11.3081C24.1985 11.107 23.333 10.9105 22.4955 10.6999L22.5002 10.6789L16.9233 9.28698L15.8472 13.6053C15.8472 13.6053 18.8485 14.2931 18.7854 14.3352C20.4229 14.7446 20.7176 15.8277 20.6685 16.6885L18.783 24.2562C18.8953 24.2842 19.0404 24.3263 19.2041 24.3895L18.776 24.2842L16.1326 34.8859C15.9314 35.3819 15.4238 36.1281 14.2776 35.845C14.3197 35.9035 11.3394 35.1128 11.3394 35.1128L9.33228 39.74L14.5957 41.0523C15.5735 41.298 16.5326 41.5553 17.4754 41.7962L15.8028 48.5147L19.8427 49.5206L21.499 42.877C22.6031 43.1741 23.6745 43.4501 24.7225 43.7121L23.071 50.3276L27.1133 51.3335L28.7859 44.6291C35.6821 45.9344 40.866 45.4081 43.0486 39.1715C44.8077 34.1514 42.962 31.253 39.3338 29.3652C41.9772 28.757 43.9656 27.0189 44.4966 23.428ZM35.2564 36.3831C34.0095 41.4056 25.553 38.6896 22.8113 38.0089L25.0337 29.1079C27.7753 29.7933 36.5641 31.1477 35.2564 36.3831ZM36.5079 23.3555C35.3687 27.9242 28.3321 25.6013 26.0512 25.0328L28.063 16.9622C30.3439 17.5307 37.6963 18.5904 36.5079 23.3555Z" fill="#F7931A"/>
</g>
</svg>
