<svg width="56" height="56" viewBox="0 0 56 56" fill="none" xmlns="http://www.w3.org/2000/svg">
<g id="Logo / MATIC">
<path id="Vector" d="M39.882 20.2847C39.0209 19.7815 37.9016 19.7815 36.9546 20.2847L30.2386 24.1423L25.6753 26.6582L18.9595 30.5158C18.0985 31.019 16.9792 31.019 16.0321 30.5158L10.6938 27.4967C9.83279 26.9936 9.23009 26.0712 9.23009 25.0648V19.1106C9.23009 18.1043 9.7467 17.1818 10.6938 16.6786L15.9459 13.7434C16.807 13.2403 17.9263 13.2403 18.8734 13.7434L24.1256 16.6786C24.9865 17.1818 25.5892 18.1043 25.5892 19.1106V22.9683L30.1526 20.3685V16.5109C30.1526 15.5045 29.636 14.5821 28.6889 14.0789L18.9595 8.544C18.0985 8.04083 16.9792 8.04083 16.0321 8.544L6.13046 14.0789C5.18335 14.5821 4.66675 15.5045 4.66675 16.5109V27.6646C4.66675 28.6709 5.18335 29.5934 6.13046 30.0966L16.0321 35.6315C16.893 36.1346 18.0124 36.1346 18.9595 35.6315L25.6753 31.8576L30.2386 29.2579L36.9546 25.4841C37.8155 24.981 38.9348 24.981 39.882 25.4841L45.1341 28.4193C45.995 28.9224 46.5978 29.845 46.5978 30.8513V36.8054C46.5978 37.8119 46.0813 38.7343 45.1341 39.2374L39.882 42.2565C39.0209 42.7597 37.9016 42.7597 36.9546 42.2565L31.7025 39.3214C30.8414 38.8182 30.2386 37.8956 30.2386 36.8893V33.0318L25.6753 35.6315V39.489C25.6753 40.4953 26.192 41.4179 27.139 41.9211L37.0407 47.4559C37.9016 47.9591 39.0209 47.9591 39.968 47.4559L49.8697 41.9211C50.7307 41.4179 51.3334 40.4953 51.3334 39.489V28.3354C51.3334 27.3291 50.8167 26.4067 49.8697 25.9035L39.882 20.2847Z" fill="#8247E5"/>
</g>
</svg>
