<svg width="56" height="56" viewBox="0 0 56 56" fill="none" xmlns="http://www.w3.org/2000/svg">
<g id="Logo / Metamask">
<path id="Vector" d="M48.1782 6.23975L30.6892 19.2291L33.9234 11.5655L48.1782 6.23975Z" fill="#E2761B"/>
<path id="Vector (Stroke)" fill-rule="evenodd" clip-rule="evenodd" d="M48.2554 6.19776C48.2763 6.23622 48.2658 6.2842 48.2306 6.31031L30.7416 19.2996C30.7098 19.3233 30.6661 19.3227 30.6349 19.2982C30.6038 19.2737 30.5928 19.2314 30.6082 19.1949L33.8424 11.5314C33.8518 11.5091 33.8699 11.4917 33.8926 11.4832L48.1475 6.15743C48.1885 6.14211 48.2345 6.1593 48.2554 6.19776ZM33.9896 11.6346L30.8954 18.9664L47.6274 6.53935L33.9896 11.6346Z" fill="#E2761B"/>
<path id="Vector_2" d="M7.80407 6.23975L25.1525 19.3521L22.0765 11.5655L7.80407 6.23975ZM41.8857 36.349L37.2278 43.4852L47.1939 46.2272L50.0589 36.5072L41.8857 36.349ZM5.9585 36.5072L8.80595 46.2272L18.7721 43.4852L14.1142 36.349L5.9585 36.5072Z" fill="#E4761B"/>
<path id="Vector (Stroke)_2" fill-rule="evenodd" clip-rule="evenodd" d="M7.72703 6.19745C7.74803 6.15921 7.79391 6.14216 7.83479 6.15741L22.1072 11.4832C22.1306 11.4919 22.1491 11.5101 22.1582 11.5333L25.2342 19.3198C25.2487 19.3565 25.237 19.3983 25.2056 19.4221C25.1743 19.4459 25.1309 19.446 25.0995 19.4222L7.75107 6.30986C7.71627 6.28356 7.70603 6.23569 7.72703 6.19745ZM8.33707 6.53245L24.9557 19.0932L22.0091 11.6342L8.33707 6.53245ZM14.1125 36.2611C14.1428 36.2605 14.1712 36.2756 14.1878 36.3009L18.8456 43.4372C18.861 43.4607 18.8642 43.4901 18.8542 43.5163C18.8443 43.5426 18.8224 43.5625 18.7954 43.5699L8.82926 46.3119C8.78301 46.3247 8.7351 46.2979 8.72161 46.2519L5.87415 36.5319C5.86645 36.5056 5.87144 36.4772 5.88764 36.4552C5.90385 36.4331 5.92941 36.4198 5.95679 36.4193L14.1125 36.2611ZM41.8121 36.3009C41.8286 36.2756 41.8571 36.2605 41.8874 36.2611L50.0606 36.4193C50.088 36.4198 50.1136 36.4331 50.1298 36.4552C50.146 36.4773 50.151 36.5057 50.1432 36.532L47.2782 46.252C47.2647 46.298 47.2168 46.3246 47.1706 46.3119L37.2045 43.5699C37.1774 43.5625 37.1555 43.5426 37.1456 43.5163C37.1357 43.4901 37.1389 43.4607 37.1542 43.4372L41.8121 36.3009ZM6.07516 36.5928L8.86598 46.1195L18.6326 43.4324L14.0672 36.4378L6.07516 36.5928ZM41.9327 36.4378L37.3672 43.4324L47.134 46.1196L49.9421 36.5928L41.9327 36.4378Z" fill="#E4761B"/>
<path id="Vector_3" d="M18.2098 24.2913L15.4326 28.4922L25.3284 28.9316L24.9769 18.2976L18.2098 24.2913ZM37.7729 24.2913L30.9179 18.1746L30.6894 28.9316L40.5676 28.4922L37.7729 24.2913ZM18.7722 43.4853L24.7132 40.5851L19.5808 36.5776L18.7722 43.4853ZM31.2694 40.5851L37.228 43.4853L36.4019 36.5776L31.2694 40.5851Z" fill="#E4761B"/>
<path id="Vector (Stroke)_3" fill-rule="evenodd" clip-rule="evenodd" d="M30.8828 18.094C30.9142 18.0803 30.9508 18.0861 30.9764 18.109L37.8314 24.2257C37.837 24.2307 37.8419 24.2364 37.846 24.2426L40.6408 28.4435C40.6583 28.4699 40.6603 28.5037 40.6459 28.532C40.6316 28.5602 40.6032 28.5786 40.5715 28.58L30.6933 29.0194C30.669 29.0205 30.6453 29.0115 30.6279 28.9945C30.6106 28.9775 30.601 28.9541 30.6015 28.9298L30.83 18.1727C30.8307 18.1384 30.8513 18.1077 30.8828 18.094ZM31.0017 18.3671L30.7792 28.8397L40.4082 28.4113L37.7059 24.3494L31.0017 18.3671ZM25.0116 18.2169C25.0429 18.2303 25.0636 18.2607 25.0647 18.2947L25.4162 28.9287C25.4171 28.9532 25.4076 28.9769 25.3902 28.9941C25.3728 29.0113 25.349 29.0205 25.3245 29.0194L15.4287 28.58C15.3971 28.5786 15.3687 28.5603 15.3543 28.5321C15.3399 28.5039 15.3418 28.4701 15.3593 28.4437L18.1364 24.2428C18.1407 24.2364 18.1457 24.2306 18.1515 24.2255L24.9186 18.2318C24.9441 18.2092 24.9803 18.2034 25.0116 18.2169ZM18.2767 24.3494L15.5915 28.4113L25.2374 28.8396L24.8952 18.4873L18.2767 24.3494ZM19.5469 36.4965C19.5762 36.4842 19.6098 36.4888 19.6348 36.5083L24.7673 40.5158C24.7912 40.5345 24.8038 40.5641 24.8006 40.5943C24.7975 40.6244 24.779 40.6508 24.7518 40.6641L18.8108 43.5643C18.7819 43.5784 18.7476 43.5756 18.7214 43.557C18.6952 43.5384 18.6812 43.507 18.6849 43.4751L19.4935 36.5674C19.4972 36.5358 19.5176 36.5087 19.5469 36.4965ZM36.4356 36.4964C36.4649 36.5086 36.4854 36.5356 36.4891 36.5671L37.3152 43.4749C37.319 43.5068 37.3051 43.5383 37.2789 43.5569C37.2527 43.5755 37.2184 43.5784 37.1895 43.5643L31.2309 40.6641C31.2037 40.6509 31.1852 40.6245 31.182 40.5943C31.1788 40.5642 31.1914 40.5345 31.2153 40.5158L36.3478 36.5083C36.3728 36.4888 36.4063 36.4842 36.4356 36.4964ZM19.6499 36.743L18.8782 43.3358L24.5483 40.5678L19.6499 36.743ZM31.4345 40.5677L37.1216 43.3358L36.3331 36.7428L31.4345 40.5677Z" fill="#E4761B"/>
<path id="Vector_4" d="M37.228 43.4853L31.2694 40.5851L31.744 44.4696L31.6912 46.1042L37.228 43.4853ZM18.7722 43.4853L24.3089 46.1042L24.2738 44.4696L24.7132 40.5851L18.7722 43.4853Z" fill="#D7C1B3"/>
<path id="Vector (Stroke)_4" fill-rule="evenodd" clip-rule="evenodd" d="M31.2183 40.5135C31.2446 40.4948 31.2789 40.492 31.3078 40.5061L37.2664 43.4062C37.2968 43.421 37.316 43.452 37.3158 43.4858C37.3157 43.5196 37.2961 43.5503 37.2655 43.5647L31.7288 46.1837C31.7011 46.1968 31.6686 46.1945 31.643 46.1777C31.6174 46.1609 31.6024 46.132 31.6034 46.1014L31.6559 44.4735L31.1821 40.5957C31.1782 40.5638 31.1921 40.5322 31.2183 40.5135ZM24.7639 40.5133C24.7901 40.5318 24.8041 40.5631 24.8005 40.595L24.3618 44.4736L24.3968 46.1023C24.3975 46.1328 24.3823 46.1614 24.3567 46.178C24.3312 46.1945 24.2989 46.1967 24.2714 46.1837L18.7346 43.5647C18.7041 43.5503 18.6845 43.5196 18.6843 43.4858C18.6841 43.452 18.7033 43.4211 18.7337 43.4063L24.6747 40.5061C24.7035 40.492 24.7377 40.4948 24.7639 40.5133ZM31.3762 40.7348L31.8312 44.4589C31.8317 44.4634 31.8319 44.4679 31.8318 44.4724L31.7837 45.9633L37.0248 43.4841L31.3762 40.7348ZM18.9751 43.484L24.218 45.964L24.1859 44.4715C24.1858 44.4675 24.186 44.4636 24.1865 44.4597L24.6079 40.7343L18.9751 43.484Z" fill="#D7C1B3"/>
<path id="Vector_5" d="M24.3966 34.0113L19.4399 32.5524L22.9377 30.9529L24.3966 34.0113ZM31.5856 34.0113L33.0445 30.9529L36.5598 32.5524L31.5856 34.0113Z" fill="#233447"/>
<path id="Vector (Stroke)_5" fill-rule="evenodd" clip-rule="evenodd" d="M22.9012 30.873C22.9448 30.853 22.9964 30.8717 23.0171 30.9151L24.4759 33.9734C24.4909 34.0047 24.486 34.0419 24.4635 34.0683C24.441 34.0947 24.4051 34.1054 24.3718 34.0956L19.4151 32.6367C19.3799 32.6263 19.3549 32.5952 19.3523 32.5587C19.3497 32.5221 19.37 32.4877 19.4034 32.4725L22.9012 30.873ZM32.9651 30.9151C32.9858 30.8718 33.0372 30.8531 33.0809 30.8729L36.5962 32.4724C36.6297 32.4876 36.6501 32.522 36.6475 32.5586C36.6449 32.5952 36.6198 32.6264 36.5846 32.6367L31.6103 34.0956C31.577 34.1054 31.5411 34.0947 31.5187 34.0683C31.4962 34.0419 31.4913 34.0047 31.5063 33.9734L32.9651 30.9151ZM33.0866 31.0686L31.7496 33.8716L36.3084 32.5345L33.0866 31.0686ZM19.6904 32.5345L24.2325 33.8714L22.8956 31.0688L19.6904 32.5345Z" fill="#233447"/>
<path id="Vector_6" d="M18.7721 43.4853L19.6158 36.3491L14.1143 36.5073L18.7721 43.4853ZM36.3842 36.3491L37.2279 43.4853L41.8858 36.5073L36.3842 36.3491ZM40.5675 28.4922L30.6893 28.9316L31.6033 34.0113L33.0622 30.953L36.5775 32.5524L40.5675 28.4922ZM19.4401 32.5524L22.9554 30.953L24.3967 34.0113L25.3283 28.9316L15.4325 28.4922L19.4401 32.5524Z" fill="#CD6116"/>
<path id="Vector (Stroke)_6" fill-rule="evenodd" clip-rule="evenodd" d="M15.3522 28.4565C15.3669 28.4235 15.4003 28.4028 15.4364 28.4044L25.3322 28.8438C25.3576 28.8449 25.3812 28.857 25.3971 28.8769C25.4129 28.8967 25.4193 28.9225 25.4148 28.9475L24.4832 34.0272C24.4763 34.0647 24.4459 34.0935 24.4081 34.0985C24.3702 34.1034 24.3335 34.0833 24.3172 34.0488L22.9129 31.0689L19.4764 32.6324C19.4429 32.6477 19.4034 32.6404 19.3775 32.6142L15.37 28.5539C15.3446 28.5282 15.3375 28.4895 15.3522 28.4565ZM40.6478 28.4564C40.6625 28.4894 40.6555 28.528 40.6302 28.5538L36.6402 32.614C36.6143 32.6404 36.5747 32.6477 36.5411 32.6324L33.1043 31.0687L31.6826 34.0492C31.6662 34.0836 31.6294 34.1035 31.5916 34.0984C31.5537 34.0933 31.5235 34.0644 31.5168 34.0269L30.6028 28.9472C30.5983 28.9222 30.6048 28.8965 30.6206 28.8767C30.6364 28.8569 30.66 28.8449 30.6854 28.8438L40.5636 28.4044C40.5997 28.4028 40.6331 28.4234 40.6478 28.4564ZM15.6525 28.5899L19.4595 32.447L22.919 30.873C22.9628 30.853 23.0144 30.872 23.0349 30.9155L24.3596 33.7264L25.2237 29.0149L15.6525 28.5899ZM30.7936 29.0149L31.6414 33.7272L32.9828 30.9151C33.0035 30.8719 33.0549 30.8531 33.0985 30.873L36.558 32.447L40.3482 28.5899L30.7936 29.0149ZM19.6807 36.2897C19.6979 36.3086 19.7061 36.334 19.7031 36.3594L18.8594 43.4956C18.8551 43.5322 18.8284 43.5621 18.7926 43.5707C18.7568 43.5793 18.7195 43.5647 18.699 43.5341L14.0412 36.556C14.0234 36.5295 14.0215 36.4953 14.0362 36.4669C14.0508 36.4385 14.0798 36.4203 14.1117 36.4194L19.6133 36.2612C19.6388 36.2605 19.6634 36.2709 19.6807 36.2897ZM36.3193 36.2897C36.3366 36.2709 36.3612 36.2605 36.3867 36.2612L41.8883 36.4194C41.9202 36.4203 41.9492 36.4385 41.9638 36.4669C41.9785 36.4953 41.9766 36.5295 41.9589 36.556L37.301 43.5341C37.2805 43.5647 37.2432 43.5793 37.2074 43.5707C37.1716 43.5621 37.1449 43.5322 37.1406 43.4956L36.2969 36.3594C36.2939 36.334 36.3021 36.3086 36.3193 36.2897ZM14.2755 36.5905L18.7128 43.2382L19.5166 36.4398L14.2755 36.5905ZM36.4834 36.4398L37.2872 43.2382L41.7245 36.5905L36.4834 36.4398Z" fill="#CD6116"/>
<path id="Vector_7" d="M15.4326 28.4922L19.5808 36.5776L19.4401 32.5524L15.4326 28.4922ZM36.5776 32.5524L36.4019 36.5776L40.5676 28.4922L36.5776 32.5524ZM25.3284 28.9316L24.3968 34.0113L25.5569 40.0051L25.8206 32.113L25.3284 28.9316ZM30.6894 28.9316L30.2148 32.0955L30.4257 40.0051L31.6034 34.0113L30.6894 28.9316Z" fill="#E4751F"/>
<path id="Vector (Stroke)_7" fill-rule="evenodd" clip-rule="evenodd" d="M40.6191 28.421C40.6543 28.4464 40.6656 28.4938 40.6457 28.5324L36.48 36.6178C36.4611 36.6545 36.4192 36.6731 36.3793 36.6625C36.3394 36.6519 36.3123 36.615 36.3141 36.5737L36.4898 32.5486C36.4908 32.5269 36.4997 32.5063 36.5149 32.4908L40.5049 28.4306C40.5354 28.3996 40.5839 28.3955 40.6191 28.421ZM15.3811 28.421C15.4162 28.3956 15.4647 28.3996 15.4952 28.4304L19.5027 32.4907C19.5182 32.5064 19.5272 32.5273 19.528 32.5494L19.6686 36.5745C19.67 36.6156 19.6427 36.6522 19.6029 36.6626C19.5631 36.673 19.5214 36.6543 19.5026 36.6177L15.3544 28.5323C15.3346 28.4937 15.3459 28.4464 15.3811 28.421ZM15.772 28.9611L19.4792 36.187L19.3535 32.5898L15.772 28.9611ZM36.664 32.59L36.5071 36.1813L40.224 28.9673L36.664 32.59ZM25.3296 28.8437C25.3725 28.8443 25.4087 28.8758 25.4153 28.9182L25.9074 32.0996C25.9083 32.105 25.9086 32.1105 25.9084 32.116L25.6447 40.008C25.6433 40.0527 25.6084 40.0891 25.5638 40.0927C25.5192 40.0962 25.4791 40.0657 25.4706 40.0218L24.3106 34.028C24.3085 34.0173 24.3084 34.0062 24.3104 33.9955L25.242 28.9158C25.2497 28.8736 25.2868 28.8431 25.3296 28.8437ZM30.6881 28.8437C30.7311 28.8431 30.7682 28.8737 30.7759 28.916L31.6899 33.9958C31.6918 34.0065 31.6917 34.0175 31.6896 34.0283L30.5119 40.022C30.5033 40.0659 30.463 40.0964 30.4184 40.0926C30.3737 40.0889 30.3391 40.0522 30.3379 40.0074L30.1269 32.0978C30.1268 32.0926 30.1271 32.0875 30.1279 32.0824L30.6025 28.9186C30.6088 28.876 30.6451 28.8444 30.6881 28.8437ZM24.4863 34.0109L25.4951 39.2232L25.7325 32.1183L25.3211 29.4589L24.4863 34.0109ZM30.6972 29.4716L30.3028 32.1008L30.4924 39.2097L31.5139 34.0106L30.6972 29.4716Z" fill="#E4751F"/>
<path id="Vector_8" d="M31.6032 34.0113L30.4255 40.005L31.2692 40.585L36.4016 36.5775L36.5774 32.5524L31.6032 34.0113ZM19.4399 32.5524L19.5806 36.5775L24.713 40.585L25.5567 40.005L24.3966 34.0113L19.4399 32.5524Z" fill="#F6851B"/>
<path id="Vector (Stroke)_8" fill-rule="evenodd" clip-rule="evenodd" d="M36.6316 32.4832C36.6539 32.5007 36.6665 32.5279 36.6652 32.5562L36.4894 36.5813C36.4883 36.607 36.476 36.6309 36.4557 36.6467L31.3233 40.6543C31.293 40.6779 31.251 40.6792 31.2194 40.6574L30.3757 40.0774C30.3468 40.0575 30.3325 40.0224 30.3393 39.988L31.5169 33.9943C31.5232 33.9621 31.5469 33.9361 31.5784 33.9269L36.5527 32.468C36.5799 32.46 36.6093 32.4657 36.6316 32.4832ZM19.3861 32.4829C19.4084 32.4656 19.4377 32.4601 19.4647 32.4681L24.4214 33.9269C24.453 33.9362 24.4767 33.9623 24.4829 33.9945L25.643 39.9883C25.6496 40.0226 25.6353 40.0576 25.6065 40.0774L24.7628 40.6574C24.7312 40.6792 24.6891 40.6779 24.6589 40.6543L19.5265 36.6467C19.506 36.6308 19.4936 36.6065 19.4927 36.5805L19.3521 32.5554C19.3511 32.5272 19.3638 32.5002 19.3861 32.4829ZM31.6791 34.0806L30.5229 39.9653L31.2659 40.4761L36.3156 36.5331L36.4843 32.6713L31.6791 34.0806ZM19.532 32.6711L24.3205 34.0805L25.4595 39.9652L24.7163 40.4761L19.667 36.5334L19.532 32.6711Z" fill="#F6851B"/>
<path id="Vector_9" d="M31.6912 46.1042L31.744 44.4695L31.3045 44.0828H24.6781L24.2738 44.4695L24.3089 46.1042L18.7722 43.4852L20.7057 45.0672L24.6253 47.7916H31.3573L35.2945 45.0672L37.228 43.4852L31.6912 46.1042Z" fill="#C0AD9E"/>
<path id="Vector (Stroke)_9" fill-rule="evenodd" clip-rule="evenodd" d="M18.6979 43.4383C18.7217 43.4007 18.7697 43.3868 18.8098 43.4058L24.218 45.964L24.1859 44.4714C24.1854 44.4468 24.1952 44.4231 24.213 44.406L24.6173 44.0193C24.6337 44.0037 24.6554 43.995 24.6781 43.995H31.3045C31.3259 43.995 31.3466 44.0028 31.3626 44.0169L31.802 44.4036C31.8217 44.4209 31.8327 44.4461 31.8318 44.4724L31.7837 45.9632L37.1904 43.4058C37.2305 43.3868 37.2785 43.4007 37.3022 43.4383C37.326 43.4758 37.318 43.5251 37.2836 43.5533L35.3502 45.1352C35.3483 45.1367 35.3464 45.1381 35.3445 45.1394L31.4073 47.8638C31.3926 47.874 31.3751 47.8795 31.3573 47.8795H24.6253C24.6074 47.8795 24.5899 47.874 24.5752 47.8637L20.6555 45.1393C20.6536 45.138 20.6518 45.1366 20.65 45.1352L18.7166 43.5533C18.6822 43.5251 18.6742 43.4758 18.6979 43.4383ZM19.3829 43.8713L20.7587 44.997L24.6529 47.7037H31.3298L35.2416 44.9969L36.6173 43.8713L31.7288 46.1836C31.7011 46.1967 31.6686 46.1945 31.643 46.1777C31.6174 46.1609 31.6024 46.132 31.6034 46.1014L31.6548 44.5081L31.2714 44.1707H24.7133L24.3625 44.5063L24.3968 46.1023C24.3975 46.1327 24.3823 46.1614 24.3568 46.1779C24.3312 46.1945 24.2989 46.1967 24.2714 46.1836L19.3829 43.8713Z" fill="#C0AD9E"/>
<path id="Vector_10" d="M31.2693 40.585L30.4256 40.005H25.5568L24.7131 40.585L24.2737 44.4695L24.6779 44.0828H31.3044L31.7439 44.4695L31.2693 40.585Z" fill="#161616"/>
<path id="Vector (Stroke)_10" fill-rule="evenodd" clip-rule="evenodd" d="M25.507 39.9326C25.5217 39.9225 25.539 39.9171 25.5568 39.9171H30.4256C30.4434 39.9171 30.4607 39.9225 30.4754 39.9326L31.3191 40.5126C31.3398 40.5269 31.3535 40.5494 31.3565 40.5744L31.8311 44.4589C31.8355 44.4951 31.8171 44.5302 31.7849 44.5473C31.7526 44.5643 31.7132 44.5596 31.6858 44.5355L31.2713 44.1707H24.7132L24.3344 44.533C24.3077 44.5586 24.2678 44.5647 24.2347 44.5483C24.2015 44.5318 24.1822 44.4964 24.1864 44.4597L24.6258 40.5752C24.6286 40.5499 24.6423 40.527 24.6633 40.5126L25.507 39.9326ZM25.5841 40.0929L24.7959 40.6347L24.3883 44.2383L24.6172 44.0193C24.6336 44.0037 24.6553 43.995 24.6779 43.995H31.3044C31.3258 43.995 31.3465 44.0027 31.3625 44.0169L31.6286 44.2511L31.1868 40.635L30.3983 40.0929H25.5841Z" fill="#161616"/>
<path id="Vector_11" d="M48.9164 20.0728L50.4104 12.9014L48.1782 6.23975L31.2692 18.7897L37.7727 24.2912L46.9654 26.9805L49.0043 24.6076L48.1254 23.9748L49.5316 22.6917L48.4418 21.848L49.848 20.7758L48.9164 20.0728ZM5.58936 12.9014L7.08339 20.0728L6.13424 20.7758L7.54039 21.848L6.4682 22.6917L7.87435 23.9748L6.99551 24.6076L9.01685 26.9805L18.2096 24.2912L24.713 18.7897L7.80405 6.23975L5.58936 12.9014Z" fill="#763D16"/>
<path id="Vector (Stroke)_11" fill-rule="evenodd" clip-rule="evenodd" d="M7.77759 6.15593C7.80447 6.14745 7.83378 6.15237 7.85642 6.16917L24.7654 18.7191C24.7869 18.7351 24.8 18.76 24.8009 18.7869C24.8017 18.8137 24.7903 18.8394 24.7698 18.8567L18.2663 24.3583C18.257 24.3662 18.246 24.3721 18.2342 24.3756L9.04152 27.0648C9.00827 27.0746 8.97241 27.0638 8.94994 27.0375L6.9286 24.6646C6.91268 24.6459 6.9053 24.6214 6.90826 24.597C6.91121 24.5727 6.92422 24.5506 6.94415 24.5363L7.73513 23.9668L6.40896 22.7566C6.38988 22.7392 6.37943 22.7143 6.38037 22.6885C6.38131 22.6627 6.39355 22.6386 6.41385 22.6227L7.39688 21.8491L6.08095 20.8457C6.05897 20.829 6.04616 20.8029 6.04635 20.7752C6.04654 20.7476 6.05972 20.7217 6.08192 20.7052L6.98588 20.0356L5.50331 12.9193C5.50015 12.9041 5.50106 12.8884 5.50595 12.8737L7.72064 6.21202C7.72953 6.18527 7.75071 6.16441 7.77759 6.15593ZM48.2045 6.1559C48.2314 6.16434 48.2526 6.18513 48.2615 6.21182L50.4938 12.8735C50.4987 12.8882 50.4997 12.9041 50.4965 12.9193L49.0138 20.0362L49.9009 20.7057C49.9229 20.7222 49.9358 20.7481 49.9359 20.7756C49.9359 20.8031 49.9231 20.8291 49.9013 20.8457L48.5861 21.8486L49.5854 22.6222C49.6059 22.6381 49.6184 22.6622 49.6194 22.6882C49.6205 22.7141 49.61 22.7392 49.5908 22.7566L48.2647 23.9668L49.0556 24.5363C49.0756 24.5507 49.0886 24.5728 49.0916 24.5972C49.0945 24.6217 49.087 24.6462 49.0709 24.6649L47.032 27.0378C47.0095 27.0639 46.9738 27.0745 46.9407 27.0648L37.748 24.3756C37.7362 24.3721 37.7253 24.3662 37.7159 24.3583L31.2124 18.8567C31.1919 18.8394 31.1805 18.8137 31.1814 18.7869C31.1822 18.76 31.1953 18.7351 31.2168 18.7191L48.1258 6.16917C48.1484 6.15239 48.1777 6.14746 48.2045 6.1559ZM31.4106 18.7941L37.8152 24.2121L46.9356 26.8802L48.8752 24.623L48.0741 24.0462C48.0526 24.0307 48.0392 24.0063 48.0377 23.9799C48.0362 23.9535 48.0466 23.9278 48.0662 23.9099L49.3952 22.6972L48.388 21.9175C48.3664 21.9008 48.3538 21.875 48.3539 21.8477C48.354 21.8204 48.3668 21.7947 48.3885 21.7781L49.7026 20.7762L48.8635 20.1429C48.8363 20.1224 48.8234 20.0881 48.8304 20.0548L50.3195 12.9068L48.1333 6.38248L31.4106 18.7941ZM7.84914 6.38266L5.68022 12.9066L7.16942 20.0548C7.17642 20.0884 7.16325 20.123 7.1357 20.1434L6.28051 20.7769L7.59367 21.7781C7.61529 21.7946 7.62806 21.8202 7.62827 21.8474C7.62847 21.8745 7.61609 21.9003 7.59473 21.9171L6.60401 22.6967L7.93358 23.9099C7.95314 23.9278 7.96361 23.9535 7.96208 23.9799C7.96055 24.0063 7.94719 24.0307 7.9257 24.0462L7.12424 24.6232L9.04682 26.8801L18.167 24.2121L24.5716 18.7941L7.84914 6.38266Z" fill="#763D16"/>
<path id="Vector_12" d="M46.9654 26.9805L37.7727 24.2912L40.5674 28.4921L36.4017 36.5775L41.8857 36.5072H50.0589L46.9654 26.9805ZM18.2096 24.2912L9.01688 26.9805L5.9585 36.5072H14.1142L19.5806 36.5775L15.4324 28.4921L18.2096 24.2912ZM30.6892 28.9315L31.2692 18.7897L33.9409 11.5656H22.0765L24.713 18.7897L25.3282 28.9315L25.5392 32.1305L25.5567 40.005H30.4255L30.4607 32.1305L30.6892 28.9315Z" fill="#F6851B"/>
<path id="Vector (Stroke)_12" fill-rule="evenodd" clip-rule="evenodd" d="M22.0045 11.5152C22.0209 11.4917 22.0478 11.4777 22.0765 11.4777H33.9409C33.9697 11.4777 33.9966 11.4917 34.013 11.5153C34.0295 11.5389 34.0333 11.5691 34.0233 11.596L31.3562 18.8078L30.7769 28.9365L30.7769 28.9378L30.5486 32.1338L30.5134 40.0054C30.5132 40.0537 30.4739 40.0929 30.4255 40.0929H25.5567C25.5083 40.0929 25.469 40.0536 25.4689 40.0052L25.4513 32.1335L25.2405 28.9373L25.2405 28.9368L24.6261 18.8078L21.994 11.5957C21.9841 11.5687 21.9881 11.5387 22.0045 11.5152ZM22.2021 11.6534L24.7956 18.7595C24.7985 18.7675 24.8003 18.7759 24.8008 18.7843L25.4159 28.9257L25.416 28.9262L25.6269 32.1247C25.627 32.1266 25.627 32.1285 25.627 32.1303L25.6444 39.9171H30.338L30.3728 32.1301C30.3728 32.1282 30.3729 32.1262 30.373 32.1243L30.6014 28.9265L30.6015 28.9253L31.1815 18.7846C31.182 18.7759 31.1838 18.7673 31.1868 18.7592L33.8147 11.6534H22.2021ZM18.2803 24.239C18.3022 24.2687 18.3032 24.3089 18.2829 24.3397L15.5341 28.4977L19.6588 36.5374C19.6729 36.5648 19.6715 36.5976 19.6553 36.6238C19.6391 36.65 19.6103 36.6657 19.5795 36.6653L14.1142 36.595H5.95849C5.93041 36.595 5.90403 36.5816 5.88748 36.5589C5.87094 36.5363 5.86623 36.507 5.87481 36.4803L8.93319 26.9536C8.94211 26.9259 8.96421 26.9043 8.9922 26.8961L18.1849 24.2069C18.2203 24.1965 18.2584 24.2094 18.2803 24.239ZM37.7019 24.2391C37.7238 24.2094 37.7619 24.1965 37.7974 24.2069L46.9901 26.8961C47.018 26.9043 47.04 26.9257 47.049 26.9533L50.1425 36.48C50.1512 36.5068 50.1466 36.5361 50.13 36.5588C50.1135 36.5816 50.0871 36.595 50.0589 36.595H41.8857L36.4028 36.6653C36.372 36.6657 36.3432 36.6499 36.3269 36.6237C36.3107 36.5975 36.3094 36.5646 36.3236 36.5372L40.4656 28.4978L37.6995 24.3399C37.6791 24.3092 37.68 24.2689 37.7019 24.2391ZM9.0863 27.0517L6.07901 36.4193H14.1153L19.4358 36.4877L15.3542 28.5322C15.3398 28.504 15.3416 28.4701 15.3591 28.4436L18.0039 24.443L9.0863 27.0517ZM37.9794 24.4433L40.6406 28.4434C40.6582 28.47 40.6601 28.504 40.6455 28.5324L36.5468 36.4877L41.8845 36.4193L41.8857 36.4193L49.938 36.4193L46.8962 27.0518L37.9794 24.4433Z" fill="#F6851B"/>
</g>
</svg>
