<svg width="56" height="56" viewBox="0 0 56 56" fill="none" xmlns="http://www.w3.org/2000/svg">
<g id="Logo / Moonpay">
<path id="Vector" d="M0.00700425 31.893C0.0668345 31.6623 0.113604 31.4284 0.147089 31.1925C0.92106 21.9214 7.48055 14.1249 16.5125 12.0164C23.902 10.2932 30.521 12.0164 36.163 17.1195C39.7319 20.3233 42.0829 24.663 42.817 29.4027C43.5746 33.8745 42.9048 38.4714 40.9026 42.5409C38.9004 46.6105 35.6675 49.9461 31.6627 52.0743C29.336 53.3193 26.7939 54.1109 24.1717 54.407C23.8215 54.449 23.4713 54.5015 23.1421 54.5506H20.0252C19.9236 54.5261 19.8256 54.4945 19.7275 54.4805C18.7959 54.3404 17.8504 54.2563 16.9258 54.0532C12.4403 53.0506 8.39252 50.6409 5.37291 47.1755C2.3533 43.7101 0.519866 39.3704 0.140085 34.7895C0.108334 34.5533 0.0615439 34.3193 0 34.089L0.00700425 31.893Z" fill="#7D00FF"/>
<path id="Vector_2" d="M48.9627 1.47396L49.6632 1.62108C51.2855 1.90902 52.7721 2.7116 53.903 3.91009C55.0339 5.10858 55.749 6.63931 55.9425 8.2758C56.183 10.2368 55.6611 12.2153 54.4847 13.8025C53.3083 15.3897 51.5672 16.4643 49.6211 16.8043C47.672 17.1284 45.6728 16.6912 44.0368 15.5831C42.4009 14.4749 41.2531 12.7806 40.8308 10.8501C40.6106 9.85995 40.588 8.83604 40.7644 7.83713C40.9407 6.83822 41.3126 5.88397 41.8585 5.02912C42.4045 4.17427 43.1139 3.43566 43.946 2.85563C44.7781 2.2756 45.7165 1.86557 46.7074 1.64909L47.6424 1.44946L48.9627 1.47396Z" fill="#7D00FF"/>
</g>
</svg>
