<svg width="56" height="56" viewBox="0 0 56 56" fill="none" xmlns="http://www.w3.org/2000/svg">
<g id="Logo / Phantom">
<path id="Vector" d="M0 28.0002C0 43.4639 12.5358 56 27.9998 56C43.4639 56 56 43.4639 56 28.0002C56 12.5362 43.4639 3.8147e-06 27.9998 3.8147e-06C12.5358 3.8147e-06 0 12.5362 0 28.0002Z" fill="url(#paint0_linear_2100_1830)"/>
<path id="Vector_2" d="M6.55657 27.9699C6.35145 38.19 15.9737 47.0646 26.2315 47.0646H27.5217C36.5653 47.0646 48.686 40.0107 50.5799 31.4156C50.9293 29.8312 49.6732 28.3421 48.045 28.3421H43.1092C43.1092 18.2826 34.926 10.1287 24.8311 10.1287C14.861 10.1287 6.75518 18.0834 6.55657 27.9699ZM21.1094 28.79V24.834C21.1094 23.4889 22.2137 22.3885 23.5633 22.3885C24.9133 22.3885 26.0173 23.4889 26.0173 24.834V28.79C26.0173 30.1352 24.9133 31.2355 23.5633 31.2355C22.2133 31.2355 21.1094 30.1345 21.1094 28.79ZM12.5878 28.79V24.834C12.5878 23.4889 13.6914 22.3885 15.0417 22.3885C16.3914 22.3885 17.4957 23.4889 17.4957 24.834V28.79C17.4957 30.1352 16.3914 31.2355 15.0417 31.2355C13.6914 31.2355 12.5878 30.1345 12.5878 28.79Z" fill="url(#paint1_linear_2100_1830)"/>
</g>
<defs>
<linearGradient id="paint0_linear_2100_1830" x1="28" y1="56" x2="28" y2="3.8147e-06" gradientUnits="userSpaceOnUse">
<stop stop-color="#534AB2"/>
<stop offset="1" stop-color="#541CF7"/>
</linearGradient>
<linearGradient id="paint1_linear_2100_1830" x1="24.5" y1="9.33339" x2="24.5" y2="46.6667" gradientUnits="userSpaceOnUse">
<stop stop-color="white"/>
<stop offset="1" stop-color="#DFDCF4"/>
</linearGradient>
</defs>
</svg>
