<svg width="56" height="56" viewBox="0 0 56 56" fill="none" xmlns="http://www.w3.org/2000/svg">
<g id="Logo / SOL">
<path id="Vector" fill-rule="evenodd" clip-rule="evenodd" d="M12.6818 39.0245C12.831 38.863 13.0112 38.7332 13.2116 38.643C13.4121 38.5529 13.6287 38.504 13.8485 38.4995H50.5045C50.6598 38.5017 50.8107 38.5487 50.9398 38.6347C51.0688 38.7208 51.1703 38.8423 51.232 38.9846C51.2937 39.127 51.313 39.2841 51.2871 39.4371C51.2618 39.5901 51.1926 39.7324 51.0881 39.847L43.3181 48.4744C43.1689 48.6359 42.9888 48.7657 42.7883 48.8559C42.5878 48.9461 42.3712 48.9949 42.1514 48.9994H5.47194C5.31685 48.9972 5.16569 48.9503 5.03664 48.8642C4.9076 48.7781 4.80617 48.6566 4.74454 48.5143C4.68292 48.3719 4.66374 48.2148 4.6893 48.0618C4.71486 47.9088 4.78407 47.7665 4.88862 47.6519L12.6818 39.0245ZM51.1231 31.873C51.2276 31.9875 51.2968 32.1299 51.3221 32.2829C51.3479 32.4359 51.3287 32.593 51.267 32.7353C51.2053 32.8777 51.1038 32.9992 50.9748 33.0852C50.8457 33.1713 50.6948 33.2182 50.5395 33.2204L13.8718 33.2496C13.6521 33.2451 13.4354 33.1963 13.235 33.1061C13.0345 33.0159 12.8543 32.8861 12.7052 32.7246L4.87695 24.1264C4.77241 24.0119 4.70319 23.8695 4.67763 23.7165C4.65207 23.5635 4.67126 23.4064 4.73288 23.264C4.7945 23.1217 4.89593 23.0002 5.02498 22.9141C5.15402 22.8281 5.30518 22.7811 5.46028 22.7789L42.1281 22.7498C42.3479 22.7543 42.5645 22.8031 42.7649 22.8933C42.9654 22.9835 43.1456 23.1132 43.2947 23.2748L51.1231 31.873ZM12.6818 7.52499C12.831 7.36348 13.0112 7.23373 13.2116 7.14352C13.4121 7.05331 13.6287 7.00449 13.8485 7L50.5281 7.02917C50.683 7.03135 50.8343 7.0783 50.9634 7.16436C51.0925 7.25042 51.194 7.37193 51.2552 7.51427C51.3169 7.65662 51.3361 7.81374 51.3108 7.96673C51.285 8.11972 51.2158 8.26206 51.1113 8.37665L43.3181 16.9749C43.1689 17.1364 42.9888 17.2661 42.7883 17.3563C42.5878 17.4466 42.3712 17.4953 42.1514 17.4998H5.47194C5.31685 17.4977 5.16569 17.4507 5.03664 17.3647C4.9076 17.2786 4.80617 17.1571 4.74454 17.0148C4.68292 16.8724 4.66374 16.7153 4.6893 16.5623C4.71486 16.4093 4.78407 16.2669 4.88862 16.1524L12.6818 7.52499Z" fill="#9945FF"/>
</g>
</svg>
