<svg width="56" height="56" viewBox="0 0 56 56" fill="none" xmlns="http://www.w3.org/2000/svg">
<g id="Logo / Tron">
<path id="Vector" d="M54.173 16.6173C51.5767 14.1941 47.9419 10.5593 45.0859 7.96294L44.9128 7.8764C44.6532 7.61677 44.307 7.44368 43.9609 7.35713C36.9508 6.05898 4.06413 -0.0856386 3.45832 0.000905244C3.28524 0.000905244 3.11215 0.087449 2.93906 0.173993L2.76597 0.260537C2.59288 0.433625 2.4198 0.693256 2.33325 0.952887V1.03943V1.64524V1.73178C6.05464 12.0305 20.594 45.6961 23.5365 53.6581C23.7096 54.1774 24.0558 55.2159 24.6616 55.3024H24.8347C25.1808 55.3024 26.5655 53.485 26.5655 53.485C26.5655 53.485 51.4902 23.1081 54 19.8195C54.3461 19.3867 54.6058 18.954 54.8654 18.5213C55.0385 17.8289 54.7788 17.1366 54.173 16.6173ZM32.7967 20.1656L43.5281 11.2516L49.8458 17.0501L32.7967 20.1656ZM28.6426 19.5598L10.2953 4.50119L40.0664 9.95345L28.6426 19.5598ZM30.3735 23.5408L49.1535 20.5118L27.6041 46.475L30.3735 23.5408ZM7.78552 5.97243L27.1713 22.4158L24.3154 46.475L7.78552 5.97243Z" fill="#FF060A"/>
</g>
</svg>
