<svg width="56" height="56" viewBox="0 0 56 56" fill="none" xmlns="http://www.w3.org/2000/svg">
<g id="Logo / UNI">
<g id="Vector">
<path fill-rule="evenodd" clip-rule="evenodd" d="M7 4.99933L7.19475 5.23669C14.7172 14.447 18.6042 19.2266 18.8517 19.5674C19.2574 20.1314 19.1052 20.6365 18.4074 21.0342C18.0199 21.2553 17.2206 21.4784 16.823 21.4784C16.3706 21.4784 15.8614 21.2614 15.4901 20.9104C15.2284 20.6609 14.1714 19.0825 11.7309 15.295C10.5881 13.5048 9.43031 11.7243 8.25779 9.95341C8.16023 9.86183 8.16037 9.86208 11.3553 15.5787L11.5402 15.9097C13.6622 19.7074 14.3804 21.0484 14.3804 21.2289C14.3804 21.5941 14.279 21.7848 13.8286 22.2879C13.078 23.1257 12.7432 24.0671 12.4998 26.0146C12.228 28.1995 11.4652 29.7413 9.3472 32.3807C8.1097 33.9265 7.90683 34.2105 7.59238 34.8334C7.19881 35.6164 7.09129 36.0567 7.04666 37.0467C7 38.0935 7.09129 38.7711 7.41183 39.7712C7.69179 40.6476 7.98392 41.2278 8.73048 42.3842C9.3756 43.3843 9.74686 44.1268 9.74686 44.4169C9.74686 44.6482 9.79149 44.6482 10.7916 44.423C13.1835 43.8834 15.1249 42.9319 16.2184 41.7674C16.894 41.0473 17.0522 40.6496 17.0583 39.6617C17.0603 39.0165 17.038 38.8806 16.8635 38.5094C16.5795 37.9048 16.0622 37.4017 14.9221 36.6227C13.4269 35.6002 12.7899 34.7766 12.6134 33.6466C12.4673 32.7195 12.6357 32.0642 13.4634 30.3317C14.3175 28.5383 14.5305 27.7755 14.6746 25.9679C14.7659 24.7994 14.8937 24.3389 15.2304 23.9697C15.5794 23.5842 15.8958 23.4524 16.7621 23.3347C18.1741 23.142 19.0728 22.7768 19.8112 22.0972C20.4523 21.5048 20.7201 20.9347 20.7607 20.0786L20.7931 19.4295L20.434 19.0115C19.9187 18.4111 15.6565 13.7085 7.64513 4.89993L7.43008 4.66663L7 4.99933ZM10.5956 37.408C10.661 37.6882 10.6187 37.9829 10.4772 38.2335C10.1932 38.7305 9.65962 38.8948 9.28229 38.5986C9.04696 38.414 9.03073 38.1422 9.23562 37.8338C9.43647 37.5315 9.41821 37.3814 9.16056 37.2495C9.00841 37.1704 8.94146 37.0812 8.94146 36.9594C8.94146 36.5577 9.66165 36.4117 10.1242 36.72C10.362 36.8822 10.5302 37.1277 10.5956 37.408Z" fill="#FF007A"/>
<path fill-rule="evenodd" clip-rule="evenodd" d="M20.1764 25.3188C20.3772 24.5823 21.0203 23.8784 21.6837 23.6755C22.1057 23.5457 22.976 23.6289 23.3858 23.8358C24.179 24.2415 24.7572 25.1605 24.6314 25.8239C24.4772 26.6334 23.1667 27.2805 21.6573 27.2907C20.8864 27.2967 20.6004 27.1933 20.3062 26.7997C20.1236 26.5563 20.0547 25.7671 20.1764 25.3188ZM23.185 24.1259C23.5785 24.3653 23.682 24.7244 23.4487 25.055C23.2884 25.2822 22.7934 25.4993 22.4282 25.4993C21.8846 25.4993 21.2901 25.1118 21.2901 24.7588C21.2901 24.0447 22.4303 23.6654 23.185 24.1259Z" fill="#FF007A"/>
<path d="M18.971 9.76216C18.6992 9.80273 18.7235 9.8149 19.3017 9.90417C21.4095 10.2328 23.0568 11.0686 24.7345 12.6632C25.471 13.3631 26.2135 14.2334 27.4124 15.8077C30.1147 19.3518 31.2609 20.3398 33.535 21.0803C34.8699 21.5164 36.219 21.7193 38.6007 21.8451C41.238 21.9851 42.2341 22.196 43.1754 22.8189C43.6988 23.1658 44.1045 23.5958 44.5103 24.2247L44.7477 24.5899L44.6969 24.1862C44.5083 22.6444 43.4067 20.4757 42.0028 18.8852L41.7472 18.5951L41.6174 19.1773C41.2928 20.6441 40.5908 21.699 39.9376 21.699C39.7796 21.6979 39.6251 21.6524 39.4917 21.5677C39.3583 21.4831 39.2513 21.3627 39.1829 21.2202C39.0389 20.8754 39.0511 20.7496 39.2661 20.3479C39.6597 19.6074 39.757 18.6174 39.5623 17.3251C39.5075 16.9519 39.4243 16.6009 39.3777 16.5481C39.2357 16.3757 38.0976 15.7123 37.3754 15.3796C34.7523 14.1685 31.6139 13.7729 28.5302 14.2699L27.7999 14.3856L27.2887 13.8175C25.3614 11.6732 23.5579 10.4661 21.5759 9.99343C20.7258 9.79259 19.4924 9.68101 18.971 9.76216Z" fill="#FF007A"/>
<path d="M40.4085 11.0336C40.1204 11.6686 39.9784 12.3645 39.9175 13.4194C39.879 14.099 39.8404 14.3303 39.7613 14.3607C39.6416 14.4074 39.4814 14.3587 38.5035 13.9834C37.8483 13.7298 36.2172 13.2551 36.1705 13.3017C36.4143 13.4427 36.6679 13.5661 36.9293 13.6709C37.4584 13.914 37.9756 14.1821 38.4792 14.4743C40.1529 15.4643 40.4389 16.0405 40.4389 18.4424C40.4389 19.6373 40.4247 19.7956 40.2766 20.1567C40.0778 20.6416 40.1123 20.7308 40.3314 20.3048C40.7392 19.5136 40.9075 18.7183 40.9319 17.4849C40.9461 16.6917 40.9704 16.5253 41.082 16.4117C41.2037 16.292 41.2342 16.29 41.4309 16.3914C41.7251 16.5416 43.0559 17.6026 43.6341 18.1442L44.1068 18.5885L43.6341 17.9677C43.3744 17.6249 42.6563 16.8296 42.0375 16.1987C40.7229 14.8537 40.6174 14.6752 40.4349 13.4295C40.2908 12.4497 40.3253 11.6057 40.5343 10.989C40.5902 10.8568 40.6278 10.7176 40.6458 10.5752C40.6296 10.5752 40.5221 10.7821 40.4085 11.0336Z" fill="#FF007A"/>
<path d="M18.6832 11.5753C18.5269 13.4295 19.2532 15.9106 20.4278 17.5275C21.3387 18.7812 22.7507 19.755 23.7934 19.8504C24.4751 19.9112 24.682 19.6982 24.3737 19.2478C23.9436 18.621 23.4161 17.6573 23.2782 17.2455C23.1909 16.9879 23.0023 16.2312 22.8582 15.5617C22.3693 13.2774 21.8865 12.3868 20.7747 11.7112C20.369 11.4637 19.5028 11.1412 18.9996 11.0499L18.7318 11.0012L18.6832 11.5753Z" fill="#FF007A"/>
<path d="M31.0684 22.1996C31.0684 25.4374 33.0017 27.3565 38.4934 29.5678C42.1511 31.0386 43.6443 31.8014 44.758 32.7569C45.7379 33.5988 46.3201 34.7227 46.3769 35.875C46.3891 36.0921 46.4297 36.2483 46.4702 36.2362C46.6183 36.1875 47.1803 34.9317 47.3629 34.2338C47.5962 33.3513 47.6793 31.6777 47.5373 30.785C47.0423 27.7136 44.969 25.4577 41.6176 24.346C40.5627 23.997 39.4185 23.7576 37.3877 23.4594C33.9369 22.9563 32.6893 22.5749 31.5755 21.6823C31.3361 21.4895 31.1231 21.3333 31.1028 21.3333C31.0846 21.3333 31.0684 21.7228 31.0684 22.1996Z" fill="#FF007A"/>
<path d="M34.3731 29.3244C34.4852 29.7054 34.574 30.0929 34.6389 30.4848C35.0791 33.1038 33.7036 35.2177 31.0298 36.0373C30.7478 36.1246 29.632 36.3416 28.5528 36.5222C26.3679 36.8853 25.3941 37.143 24.4142 37.6157C23.7184 37.9504 22.8785 38.4515 22.9272 38.5022C23.0491 38.4958 23.1688 38.4669 23.2802 38.417C24.5157 37.9829 25.8891 37.7597 27.9787 37.6502C28.8084 37.6076 29.7497 37.5386 30.0743 37.498C31.9366 37.2627 33.2249 36.6987 34.2291 35.6762C34.7538 35.1611 35.1505 34.5302 35.3875 33.8342C35.5579 33.3595 35.5802 33.185 35.5802 32.3451C35.5822 31.491 35.5619 31.3348 35.3773 30.8094C35.1379 30.1196 34.8519 29.6043 34.4928 29.1986L34.2311 28.9065L34.3731 29.3244Z" fill="#FF007A"/>
<path d="M37.1555 34.9546C36.4252 33.3865 36.2588 31.871 36.6585 30.4591C36.7011 30.3089 36.7701 30.1852 36.8106 30.1852C36.948 30.2349 37.0772 30.3046 37.1941 30.3921C37.5308 30.6193 38.2044 31.0007 39.9998 31.9785C42.2415 33.2019 43.5196 34.1493 44.3899 35.2285C45.1506 36.1759 45.6213 37.2552 45.8485 38.5698C45.9763 39.3143 45.9012 41.1057 45.7106 41.8563C45.108 44.2217 43.7062 46.08 41.71 47.1634C41.5215 47.2723 41.3264 47.3692 41.1257 47.4535C41.0973 47.4535 41.2028 47.1836 41.3631 46.8509C42.0325 45.4471 42.1116 44.0797 41.6024 42.5582C41.292 41.627 40.6571 40.4889 39.377 38.5698C37.8879 36.3382 37.5227 35.7418 37.1555 34.9546Z" fill="#FF007A"/>
<path d="M16.5298 43.4164C18.5686 41.696 21.1024 40.4747 23.4131 40.0994C24.4072 39.9371 26.0667 40.002 26.9877 40.2374C28.4646 40.6147 29.7873 41.4627 30.475 42.471C31.1445 43.4569 31.4346 44.3171 31.7328 46.2281C31.8545 46.9828 31.9823 47.7395 32.0209 47.9119C32.2441 48.9019 32.6843 49.6952 33.228 50.0928C34.0902 50.7237 35.5772 50.7623 37.0379 50.1942C37.1905 50.1242 37.3514 50.0737 37.5166 50.0441C37.5694 50.0969 36.835 50.5898 36.3156 50.8495C35.7028 51.1774 35.0164 51.3436 34.3214 51.3323C32.9825 51.3323 31.8708 50.6527 30.9437 49.2631C30.7611 48.9892 30.3513 48.1716 30.0307 47.4433C29.0529 45.2117 28.5701 44.5301 27.434 43.7856C26.442 43.1364 25.1659 43.0208 24.2064 43.4914C22.9445 44.1102 22.5935 45.723 23.4963 46.7434C23.8554 47.1492 24.5249 47.5001 25.0726 47.5671C25.3115 47.5987 25.5545 47.5787 25.7851 47.5084C26.0156 47.4381 26.2284 47.3191 26.409 47.1594C26.5896 46.9998 26.7338 46.8033 26.8319 46.5831C26.93 46.3629 26.9796 46.1243 26.9776 45.8832C26.9776 45.2097 26.7179 44.8283 26.0687 44.5342C25.1822 44.1345 24.2287 44.6011 24.2327 45.4349C24.2348 45.7899 24.3889 46.0131 24.746 46.1754C24.9752 46.2768 24.9793 46.287 24.7926 46.2484C23.9791 46.078 23.7884 45.0981 24.4437 44.4469C25.2288 43.6638 26.8538 44.0087 27.4117 45.0758C27.647 45.5242 27.6734 46.4188 27.4685 46.9585C27.012 48.1655 25.6772 48.7985 24.324 48.4536C23.403 48.2183 23.0277 47.9647 21.918 46.8205C19.9887 44.8324 19.2401 44.4469 16.4567 44.0128L15.9232 43.9296L16.5298 43.4164Z" fill="#FF007A"/>
</g>
</g>
</svg>
