<svg width="56" height="56" viewBox="0 0 56 56" fill="none" xmlns="http://www.w3.org/2000/svg">
<g id="Logo / Wyre" clip-path="url(#clip0_2100_1954)">
<path id="Vector" d="M33.4705 28.0001H50.1667L41.1633 50.7649C39.9097 53.9414 36.9465 56.0002 33.6415 56.0002H16.9453L25.9487 33.2354C27.2023 30.0001 30.1655 28.0001 33.4705 28.0001Z" fill="#94C5FF"/>
<path id="Vector_2" d="M50.1663 28.0001L40.0232 41.2942C38.4846 43.4119 36.1483 44.7648 33.4131 44.7648H21.2756L25.8913 33.1766C27.1449 30.0589 30.1081 28.0001 33.4131 28.0001H50.1663Z" fill="#1A32AF"/>
<path id="Vector_3" d="M27.8863 14.0001H44.5825L35.5791 36.7649C34.3254 39.9414 31.3623 42.0002 28.0572 42.0002H11.3611L20.3645 19.2354C21.6181 16.0589 24.6382 14.0001 27.8863 14.0001Z" fill="#0092FF"/>
<path id="Vector_4" d="M44.6384 14.0001L34.4954 27.2943C32.9568 29.4119 30.6205 30.7649 27.8853 30.7649H15.7478L20.3635 19.1766C21.6171 16.059 24.5802 14.0001 27.8853 14.0001H44.6384Z" fill="#1A32AF"/>
<path id="Vector_5" d="M22.3585 0H39.0546L30.0513 22.7647C28.7976 25.9412 25.8345 28 22.5294 28H5.83325L14.8367 5.2353C16.0903 2.05882 19.0534 0 22.3585 0Z" fill="#0055FF"/>
</g>
<defs>
<clipPath id="clip0_2100_1954">
<rect width="56" height="56" fill="white"/>
</clipPath>
</defs>
</svg>
