<svg width="56" height="56" viewBox="0 0 56 56" fill="none" xmlns="http://www.w3.org/2000/svg">
<g id="Logo / XRP">
<path id="Vector" d="M44.4967 9.33289H51.2401L37.2051 23.2326C34.7513 25.6502 31.4448 27.0054 28.0001 27.0054C24.5554 27.0054 21.2489 25.6502 18.7951 23.2326L4.74841 9.33289H11.5034L22.1667 19.8866C23.7196 21.4192 25.8136 22.2786 27.9954 22.2786C30.1772 22.2786 32.2713 21.4192 33.8241 19.8866L44.4967 9.33289ZM11.4217 47.9799H4.66675L18.7951 33.9962C21.2489 31.5786 24.5554 30.2234 28.0001 30.2234C31.4448 30.2234 34.7513 31.5786 37.2051 33.9962L51.3334 47.9776H44.5784L33.8334 37.3329C32.2806 35.8002 30.1866 34.9408 28.0047 34.9408C25.8229 34.9408 23.7289 35.8002 22.1761 37.3329L11.4194 47.9799H11.4217Z" fill="#333333"/>
</g>
</svg>
