<svg width="56" height="56" viewBox="0 0 56 56" fill="none" xmlns="http://www.w3.org/2000/svg">
<g id="Logo / XTZ">
<path id="Vector" fill-rule="evenodd" clip-rule="evenodd" d="M31.943 51.3327C28.5364 51.3327 26.0538 50.5301 24.4951 48.9294C22.9388 47.3241 22.1595 45.5951 22.1595 43.7425C22.1595 43.0658 22.2948 42.4941 22.5678 42.0321C22.834 41.5736 23.2184 41.1949 23.6808 40.9355C24.1521 40.6695 24.7308 40.5342 25.4191 40.5342C26.1074 40.5342 26.6884 40.6695 27.1597 40.9355C27.6311 41.2038 27.9997 41.5678 28.2727 42.0321C28.5457 42.4941 28.6811 43.0658 28.6811 43.7425C28.6811 44.5614 28.4827 45.2288 28.0837 45.7468C27.7341 46.2286 27.2381 46.5846 26.6698 46.7618C27.1411 47.4034 27.8831 47.8584 28.8981 48.1244C29.9131 48.4114 30.928 48.5537 31.9407 48.5537C33.3018 48.5696 34.6367 48.1788 35.7743 47.4314C36.9153 46.6824 37.7577 45.5764 38.299 44.1181C38.8426 42.6551 39.1156 40.9985 39.1156 39.1458C39.1156 37.1322 38.817 35.4125 38.2196 33.9869C37.6386 32.5426 36.7777 31.4739 35.6367 30.7786C34.5263 30.0928 33.2458 29.7323 31.9407 29.7379C31.0727 29.7379 29.9854 30.0926 28.6811 30.8066L26.2894 31.9826V30.8066L37.0507 16.6947H22.1595V31.3409C22.1595 32.5542 22.4301 33.5506 22.9761 34.3345C23.5175 35.1185 24.3528 35.5105 25.4728 35.5105C26.3431 35.5105 27.1761 35.2259 27.9741 34.6542C28.7745 34.0805 29.4726 33.3761 30.0391 32.5706C30.0951 32.4304 30.1898 32.3091 30.3121 32.2206C30.4105 32.137 30.5353 32.0908 30.6644 32.0899C30.865 32.0899 31.0984 32.1879 31.3714 32.3816C31.6189 32.6512 31.7549 33.0048 31.7517 33.3709C31.7206 33.6229 31.6754 33.8729 31.6164 34.1199C31.0004 35.4732 30.1464 36.5069 29.0614 37.2209C27.9988 37.9257 26.7502 38.2978 25.4751 38.2895C22.2505 38.2895 20.0222 37.6665 18.7902 36.4182C17.5582 35.1722 16.9422 33.4782 16.9422 31.3409V16.6947H9.33325V13.9671H16.9398V7.76981L15.2039 6.05716V4.6665H20.2578L22.1595 5.62783V13.9671L41.8316 13.9134L43.7916 15.8384L31.7237 27.7056C32.4547 27.4182 33.2232 27.2375 34.0057 27.169C35.3123 27.169 36.7777 27.5796 38.4086 28.4009C40.0583 29.2013 41.3253 30.3073 42.2119 31.7142C43.1009 33.1049 43.6726 34.4419 43.9246 35.7252C44.1782 36.8483 44.315 37.9946 44.3329 39.1458C44.35 41.3519 43.8472 43.5309 42.8653 45.5064C41.9217 47.4317 40.3496 48.9775 38.4086 49.8884C36.3917 50.8563 34.1801 51.3503 31.943 51.3327Z" fill="#2C7DF7"/>
</g>
</svg>
